<?xml version="1.0" encoding="UTF-8" standalone="no" ?>
<!DOCTYPE svg PUBLIC "-//W3C//DTD SVG 1.1//EN" "http://www.w3.org/Graphics/SVG/1.1/DTD/svg11.dtd">
<svg xmlns="http://www.w3.org/2000/svg" xmlns:xlink="http://www.w3.org/1999/xlink" version="1.1" width="640" height="480" viewBox="0 0 640 480" xml:space="preserve">
<desc>Created with Fabric.js 3.6.6</desc>
<defs>
</defs>
<g transform="matrix(19.47 0 0 19.47 309.65 240.35)"  >
<path style="stroke: none; stroke-width: 1; stroke-dasharray: none; stroke-linecap: butt; stroke-dashoffset: 0; stroke-linejoin: miter; stroke-miterlimit: 4; fill: rgb(255,0,0); fill-rule: nonzero; opacity: 1;"  transform=" translate(-12, -12)" d="M 10.705 0 C 7.54 0 4.902 2.285 4.349 5.291 a 4.525 4.525 0 0 0 -4.107 4.5 a 4.525 4.525 0 0 0 4.52 4.52 h 6.761 a 0.625 0.625 0 1 0 0 -1.25 H 4.761 a 3.273 3.273 0 0 1 -3.27 -3.27 A 3.273 3.273 0 0 1 6.59 7.08 a 0.625 0.625 0 0 0 0.7 -1.035 a 4.488 4.488 0 0 0 -1.68 -0.69 a 5.223 5.223 0 0 1 5.096 -4.104 a 5.221 5.221 0 0 1 5.174 4.57 a 4.489 4.489 0 0 0 -0.488 0.305 a 0.625 0.625 0 1 0 0.731 1.013 a 3.245 3.245 0 0 1 1.912 -0.616 a 3.278 3.278 0 0 1 3.203 2.61 a 0.625 0.625 0 0 0 1.225 -0.251 a 4.533 4.533 0 0 0 -4.428 -3.61 a 4.54 4.54 0 0 0 -0.958 0.105 C 16.556 2.328 13.9 0 10.705 0 z m 5.192 10.64 a 0.925 0.925 0 0 0 -0.462 0.108 a 0.913 0.913 0 0 0 -0.313 0.29 a 1.27 1.27 0 0 0 -0.175 0.427 a 2.39 2.39 0 0 0 -0.054 0.514 c 0 0.181 0.018 0.353 0.054 0.517 c 0.036 0.164 0.095 0.307 0.175 0.43 a 0.899 0.899 0 0 0 0.313 0.297 c 0.127 0.073 0.281 0.11 0.462 0.11 c 0.18 0 0.334 -0.037 0.46 -0.11 a 0.897 0.897 0 0 0 0.309 -0.296 c 0.08 -0.124 0.137 -0.267 0.173 -0.431 c 0.036 -0.164 0.054 -0.336 0.054 -0.517 c 0 -0.18 -0.018 -0.352 -0.054 -0.514 a 1.271 1.271 0 0 0 -0.173 -0.426 a 0.901 0.901 0 0 0 -0.309 -0.291 a 0.917 0.917 0 0 0 -0.46 -0.108 z m 6.486 0 a 0.925 0.925 0 0 0 -0.462 0.108 a 0.913 0.913 0 0 0 -0.313 0.29 a 1.27 1.27 0 0 0 -0.175 0.427 a 2.39 2.39 0 0 0 -0.053 0.514 c 0 0.181 0.017 0.353 0.053 0.517 c 0.036 0.164 0.095 0.307 0.175 0.43 a 0.899 0.899 0 0 0 0.313 0.297 c 0.127 0.073 0.281 0.11 0.462 0.11 c 0.18 0 0.334 -0.037 0.46 -0.11 a 0.897 0.897 0 0 0 0.31 -0.296 c 0.078 -0.124 0.136 -0.267 0.172 -0.431 c 0.036 -0.164 0.054 -0.336 0.054 -0.517 c 0 -0.18 -0.018 -0.352 -0.054 -0.514 a 1.271 1.271 0 0 0 -0.173 -0.426 a 0.901 0.901 0 0 0 -0.308 -0.291 a 0.916 0.916 0 0 0 -0.461 -0.108 z m -8.537 0.068 l -0.84 0.618 l 0.313 0.43 l 0.476 -0.368 v 1.877 h 0.603 v -2.557 z m 6.486 0 l -0.841 0.618 l 0.314 0.43 l 0.477 -0.368 v 1.877 h 0.603 v -2.557 z m -4.435 0.445 c 0.08 0 0.143 0.028 0.193 0.084 c 0.05 0.057 0.087 0.127 0.114 0.21 c 0.026 0.083 0.044 0.173 0.054 0.269 a 2.541 2.541 0 0 1 0 0.533 c -0.01 0.097 -0.028 0.187 -0.054 0.27 a 0.584 0.584 0 0 1 -0.114 0.21 a 0.243 0.243 0 0 1 -0.193 0.085 a 0.248 0.248 0 0 1 -0.195 -0.086 a 0.584 0.584 0 0 1 -0.118 -0.209 a 1.245 1.245 0 0 1 -0.056 -0.27 a 2.645 2.645 0 0 1 0 -0.533 c 0.01 -0.096 0.029 -0.186 0.056 -0.27 a 0.583 0.583 0 0 1 0.118 -0.209 a 0.25 0.25 0 0 1 0.195 -0.084 z m 6.486 0 c 0.08 0 0.144 0.028 0.193 0.084 c 0.05 0.057 0.087 0.127 0.114 0.21 c 0.027 0.083 0.044 0.173 0.054 0.269 a 2.541 2.541 0 0 1 0 0.533 c -0.01 0.097 -0.027 0.187 -0.054 0.27 a 0.584 0.584 0 0 1 -0.114 0.21 a 0.243 0.243 0 0 1 -0.193 0.085 a 0.249 0.249 0 0 1 -0.195 -0.086 a 0.581 0.581 0 0 1 -0.117 -0.209 a 1.245 1.245 0 0 1 -0.056 -0.27 a 2.642 2.642 0 0 1 0 -0.533 c 0.01 -0.096 0.028 -0.186 0.056 -0.27 a 0.58 0.58 0 0 1 0.117 -0.209 a 0.25 0.25 0 0 1 0.195 -0.084 z m -2.191 3.51 a 0.93 0.93 0 0 0 -0.463 0.109 a 0.908 0.908 0 0 0 -0.312 0.291 c -0.08 0.122 -0.139 0.263 -0.175 0.426 a 2.383 2.383 0 0 0 -0.054 0.514 c 0 0.18 0.018 0.353 0.054 0.516 c 0.036 0.164 0.094 0.308 0.175 0.432 a 0.91 0.91 0 0 0 0.312 0.296 a 0.92 0.92 0 0 0 0.463 0.11 c 0.18 0 0.333 -0.037 0.46 -0.11 a 0.892 0.892 0 0 0 0.308 -0.296 a 1.32 1.32 0 0 0 0.174 -0.432 c 0.036 -0.163 0.054 -0.335 0.054 -0.516 c 0 -0.18 -0.018 -0.352 -0.054 -0.514 a 1.274 1.274 0 0 0 -0.174 -0.426 a 0.89 0.89 0 0 0 -0.309 -0.291 a 0.918 0.918 0 0 0 -0.46 -0.108 z m -6.402 0.07 l -0.841 0.617 l 0.314 0.43 l 0.476 -0.369 v 1.878 h 0.604 v -2.557 z m 2.125 0 l -0.841 0.617 l 0.314 0.43 l 0.477 -0.369 v 1.878 h 0.603 v -2.557 z m 2.116 0 l -0.84 0.617 l 0.313 0.43 l 0.477 -0.369 v 1.878 h 0.603 v -2.557 z m 2.16 0.443 c 0.08 0 0.144 0.028 0.194 0.085 a 0.605 0.605 0 0 1 0.114 0.21 c 0.026 0.083 0.044 0.172 0.053 0.269 a 2.639 2.639 0 0 1 0 0.532 a 1.28 1.28 0 0 1 -0.053 0.27 a 0.585 0.585 0 0 1 -0.114 0.21 a 0.244 0.244 0 0 1 -0.193 0.085 a 0.25 0.25 0 0 1 -0.196 -0.085 a 0.589 0.589 0 0 1 -0.117 -0.21 a 1.245 1.245 0 0 1 -0.056 -0.27 a 2.597 2.597 0 0 1 0 -0.532 c 0.01 -0.097 0.028 -0.186 0.056 -0.27 a 0.589 0.589 0 0 1 0.117 -0.209 a 0.249 0.249 0 0 1 0.196 -0.085 z m -6.729 3.073 a 0.676 0.676 0 0 0 -0.335 0.078 a 0.661 0.661 0 0 0 -0.227 0.211 a 0.91 0.91 0 0 0 -0.127 0.31 c -0.027 0.118 -0.04 0.242 -0.04 0.373 s 0.013 0.256 0.04 0.375 a 0.93 0.93 0 0 0 0.127 0.313 a 0.65 0.65 0 0 0 0.227 0.215 c 0.092 0.053 0.204 0.08 0.335 0.08 a 0.655 0.655 0 0 0 0.334 -0.08 a 0.65 0.65 0 0 0 0.225 -0.215 c 0.057 -0.09 0.1 -0.194 0.125 -0.313 a 1.75 1.75 0 0 0 0.04 -0.375 c 0 -0.13 -0.014 -0.255 -0.04 -0.373 a 0.931 0.931 0 0 0 -0.125 -0.31 a 0.658 0.658 0 0 0 -0.225 -0.21 a 0.667 0.667 0 0 0 -0.334 -0.08 z m 3.086 0 a 0.675 0.675 0 0 0 -0.336 0.078 a 0.661 0.661 0 0 0 -0.226 0.211 a 0.907 0.907 0 0 0 -0.127 0.31 a 1.69 1.69 0 0 0 -0.04 0.373 c 0 0.131 0.013 0.256 0.04 0.375 a 0.928 0.928 0 0 0 0.127 0.313 c 0.058 0.09 0.134 0.162 0.226 0.215 c 0.093 0.053 0.205 0.08 0.336 0.08 a 0.655 0.655 0 0 0 0.334 -0.08 a 0.65 0.65 0 0 0 0.224 -0.215 c 0.058 -0.09 0.1 -0.194 0.126 -0.313 a 1.752 1.752 0 0 0 0 -0.748 a 0.94 0.94 0 0 0 -0.126 -0.31 a 0.657 0.657 0 0 0 -0.224 -0.21 a 0.667 0.667 0 0 0 -0.334 -0.08 z m 5.108 0 a 0.675 0.675 0 0 0 -0.336 0.078 a 0.661 0.661 0 0 0 -0.226 0.211 a 0.91 0.91 0 0 0 -0.127 0.31 c -0.027 0.118 -0.04 0.242 -0.04 0.373 s 0.013 0.256 0.04 0.375 a 0.931 0.931 0 0 0 0.127 0.313 c 0.058 0.09 0.134 0.162 0.226 0.215 c 0.093 0.053 0.205 0.08 0.336 0.08 c 0.13 0 0.243 -0.027 0.334 -0.08 a 0.65 0.65 0 0 0 0.224 -0.215 c 0.058 -0.09 0.1 -0.194 0.126 -0.313 a 1.75 1.75 0 0 0 0.04 -0.375 c 0 -0.13 -0.014 -0.255 -0.04 -0.373 a 0.943 0.943 0 0 0 -0.126 -0.31 a 0.657 0.657 0 0 0 -0.224 -0.21 a 0.668 0.668 0 0 0 -0.334 -0.08 z m -6.658 0.05 l -0.61 0.448 l 0.227 0.311 l 0.346 -0.266 v 1.362 h 0.438 v -1.856 z m 3.068 0 l -0.61 0.448 l 0.227 0.311 l 0.346 -0.266 v 1.362 h 0.438 v -1.856 z m 5.108 0 l -0.611 0.448 l 0.228 0.311 l 0.346 -0.266 v 1.362 h 0.438 v -1.856 z m -9.712 0.322 c 0.058 0 0.105 0.02 0.14 0.062 a 0.421 0.421 0 0 1 0.083 0.151 a 0.96 0.96 0 0 1 0.04 0.196 a 1.932 1.932 0 0 1 0 0.386 a 0.954 0.954 0 0 1 -0.04 0.197 a 0.421 0.421 0 0 1 -0.083 0.152 a 0.176 0.176 0 0 1 -0.14 0.061 a 0.18 0.18 0 0 1 -0.141 -0.06 a 0.427 0.427 0 0 1 -0.085 -0.153 a 0.887 0.887 0 0 1 -0.041 -0.197 a 1.96 1.96 0 0 1 0 -0.386 a 0.893 0.893 0 0 1 0.04 -0.196 a 0.42 0.42 0 0 1 0.086 -0.151 a 0.181 0.181 0 0 1 0.141 -0.062 z m 3.086 0 c 0.058 0 0.104 0.02 0.14 0.062 a 0.421 0.421 0 0 1 0.082 0.151 a 0.94 0.94 0 0 1 0.04 0.196 a 1.906 1.906 0 0 1 0 0.386 a 0.93 0.93 0 0 1 -0.04 0.197 a 0.421 0.421 0 0 1 -0.082 0.152 a 0.176 0.176 0 0 1 -0.14 0.061 a 0.18 0.18 0 0 1 -0.141 -0.06 a 0.42 0.42 0 0 1 -0.086 -0.153 a 0.846 0.846 0 0 1 -0.04 -0.197 a 1.965 1.965 0 0 1 -0.011 -0.195 c 0 -0.057 0.004 -0.121 0.01 -0.191 a 0.849 0.849 0 0 1 0.041 -0.196 a 0.42 0.42 0 0 1 0.086 -0.151 a 0.182 0.182 0 0 1 0.141 -0.062 z m 5.108 0 c 0.058 0 0.104 0.02 0.14 0.062 a 0.421 0.421 0 0 1 0.082 0.151 a 0.92 0.92 0 0 1 0.04 0.196 a 1.963 1.963 0 0 1 0 0.386 a 0.943 0.943 0 0 1 -0.04 0.197 a 0.421 0.421 0 0 1 -0.082 0.152 a 0.177 0.177 0 0 1 -0.14 0.061 a 0.18 0.18 0 0 1 -0.142 -0.06 a 0.437 0.437 0 0 1 -0.085 -0.153 a 0.95 0.95 0 0 1 -0.04 -0.197 a 1.965 1.965 0 0 1 -0.011 -0.195 c 0 -0.057 0.004 -0.121 0.01 -0.191 a 0.959 0.959 0 0 1 0.04 -0.196 a 0.47 0.47 0 0 1 0.086 -0.151 a 0.181 0.181 0 0 1 0.142 -0.062 z m -1.684 1.814 a 0.675 0.675 0 0 0 -0.336 0.079 a 0.66 0.66 0 0 0 -0.227 0.21 a 0.91 0.91 0 0 0 -0.127 0.31 a 1.731 1.731 0 0 0 0 0.748 a 0.939 0.939 0 0 0 0.127 0.314 c 0.059 0.09 0.134 0.162 0.227 0.215 c 0.093 0.053 0.205 0.08 0.336 0.08 a 0.66 0.66 0 0 0 0.334 -0.08 a 0.648 0.648 0 0 0 0.224 -0.215 c 0.058 -0.09 0.1 -0.195 0.126 -0.314 a 1.737 1.737 0 0 0 -0.001 -0.747 a 0.928 0.928 0 0 0 -0.125 -0.31 a 0.65 0.65 0 0 0 -0.224 -0.211 a 0.668 0.668 0 0 0 -0.334 -0.079 z m 3.063 0 a 0.676 0.676 0 0 0 -0.336 0.079 a 0.664 0.664 0 0 0 -0.227 0.21 a 0.906 0.906 0 0 0 -0.127 0.31 a 1.74 1.74 0 0 0 0 0.748 a 0.936 0.936 0 0 0 0.127 0.314 a 0.66 0.66 0 0 0 0.227 0.215 c 0.092 0.053 0.204 0.08 0.336 0.08 a 0.654 0.654 0 0 0 0.334 -0.08 a 0.648 0.648 0 0 0 0.223 -0.215 c 0.058 -0.09 0.1 -0.195 0.126 -0.314 a 1.74 1.74 0 0 0 0 -0.747 a 0.928 0.928 0 0 0 -0.126 -0.31 a 0.65 0.65 0 0 0 -0.223 -0.211 a 0.666 0.666 0 0 0 -0.334 -0.079 z m -1.545 0.05 l -0.611 0.448 l 0.228 0.312 l 0.346 -0.267 v 1.363 h 0.438 v -1.856 z m -1.518 0.323 c 0.057 0 0.104 0.02 0.14 0.061 a 0.42 0.42 0 0 1 0.082 0.152 a 0.91 0.91 0 0 1 0.04 0.195 a 1.966 1.966 0 0 1 0 0.387 a 0.951 0.951 0 0 1 -0.04 0.197 a 0.421 0.421 0 0 1 -0.082 0.152 a 0.177 0.177 0 0 1 -0.14 0.06 a 0.18 0.18 0 0 1 -0.142 -0.06 a 0.428 0.428 0 0 1 -0.085 -0.152 a 0.914 0.914 0 0 1 -0.04 -0.197 a 1.96 1.96 0 0 1 -0.011 -0.195 c 0 -0.058 0.003 -0.122 0.01 -0.192 a 0.923 0.923 0 0 1 0.041 -0.195 c 0.02 -0.06 0.048 -0.11 0.085 -0.152 a 0.181 0.181 0 0 1 0.142 -0.061 z m 3.063 0 c 0.057 0 0.104 0.02 0.14 0.061 a 0.42 0.42 0 0 1 0.082 0.152 a 0.94 0.94 0 0 1 0.04 0.195 a 1.91 1.91 0 0 1 0 0.387 a 0.93 0.93 0 0 1 -0.04 0.197 a 0.422 0.422 0 0 1 -0.083 0.152 a 0.175 0.175 0 0 1 -0.14 0.06 a 0.18 0.18 0 0 1 -0.141 -0.06 a 0.423 0.423 0 0 1 -0.085 -0.152 a 0.907 0.907 0 0 1 -0.04 -0.197 a 1.95 1.95 0 0 1 0 -0.387 a 0.915 0.915 0 0 1 0.04 -0.195 c 0.02 -0.06 0.048 -0.11 0.085 -0.152 a 0.182 0.182 0 0 1 0.142 -0.061 z m -9.713 0.185 a 0.465 0.465 0 0 0 -0.232 0.055 a 0.456 0.456 0 0 0 -0.157 0.146 a 0.627 0.627 0 0 0 -0.089 0.215 a 1.168 1.168 0 0 0 -0.027 0.259 c 0 0.09 0.009 0.177 0.027 0.26 a 0.648 0.648 0 0 0 0.089 0.216 c 0.04 0.063 0.093 0.112 0.157 0.149 a 0.459 0.459 0 0 0 0.232 0.056 c 0.09 0 0.168 -0.02 0.231 -0.056 a 0.45 0.45 0 0 0 0.156 -0.149 a 0.67 0.67 0 0 0 0.087 -0.217 a 1.218 1.218 0 0 0 0 -0.518 a 0.647 0.647 0 0 0 -0.087 -0.215 a 0.448 0.448 0 0 0 -0.156 -0.146 a 0.458 0.458 0 0 0 -0.23 -0.055 z m 1.052 0.035 l -0.423 0.31 l 0.158 0.217 l 0.24 -0.185 v 0.944 h 0.303 v -1.286 z m -1.052 0.224 c 0.04 0 0.073 0.014 0.097 0.042 a 0.284 0.284 0 0 1 0.057 0.105 a 0.69 0.69 0 0 1 0.028 0.136 c 0.004 0.049 0.007 0.092 0.007 0.133 c 0 0.04 -0.003 0.086 -0.007 0.135 a 0.684 0.684 0 0 1 -0.028 0.136 a 0.285 0.285 0 0 1 -0.057 0.105 a 0.123 0.123 0 0 1 -0.097 0.043 a 0.125 0.125 0 0 1 -0.098 -0.043 a 0.298 0.298 0 0 1 -0.059 -0.105 a 0.612 0.612 0 0 1 -0.028 -0.136 a 1.39 1.39 0 0 1 0 -0.268 a 0.62 0.62 0 0 1 0.028 -0.136 a 0.297 0.297 0 0 1 0.06 -0.105 a 0.125 0.125 0 0 1 0.097 -0.042 z m 3.775 1.394 a 0.463 0.463 0 0 0 -0.232 0.054 a 0.452 0.452 0 0 0 -0.157 0.146 a 0.621 0.621 0 0 0 -0.088 0.214 a 1.19 1.19 0 0 0 0 0.519 a 0.641 0.641 0 0 0 0.088 0.217 a 0.46 0.46 0 0 0 0.157 0.15 a 0.458 0.458 0 0 0 0.232 0.054 a 0.454 0.454 0 0 0 0.232 -0.055 a 0.45 0.45 0 0 0 0.155 -0.149 a 0.664 0.664 0 0 0 0.087 -0.217 a 1.189 1.189 0 0 0 0 -0.519 a 0.642 0.642 0 0 0 -0.087 -0.214 a 0.446 0.446 0 0 0 -0.155 -0.146 a 0.459 0.459 0 0 0 -0.232 -0.054 z m 1.052 0.034 l -0.423 0.31 l 0.158 0.216 l 0.24 -0.185 v 0.945 h 0.303 V 22.68 z m -1.052 0.223 c 0.04 0 0.073 0.014 0.098 0.043 a 0.3 0.3 0 0 1 0.057 0.105 a 0.643 0.643 0 0 1 0.027 0.135 a 1.31 1.31 0 0 1 0 0.268 a 0.654 0.654 0 0 1 -0.027 0.137 a 0.307 0.307 0 0 1 -0.057 0.105 a 0.124 0.124 0 0 1 -0.098 0.042 a 0.125 0.125 0 0 1 -0.098 -0.042 a 0.293 0.293 0 0 1 -0.059 -0.105 a 0.618 0.618 0 0 1 -0.028 -0.137 a 1.364 1.364 0 0 1 0 -0.268 a 0.612 0.612 0 0 1 0.028 -0.135 a 0.287 0.287 0 0 1 0.06 -0.105 a 0.123 0.123 0 0 1 0.097 -0.043 z" stroke-linecap="round" />
</g>
</svg>